<svg width="24" height="24" viewBox="0 0 24 24" fill="none" xmlns="http://www.w3.org/2000/svg" class="catalog-menu__nav-item-icon tp-icon" data-v-52736342=""><rect x="3.75" y="2" width="16" height="20" rx="2" stroke="currentColor" stroke-width="1.5" stroke-linecap="round" stroke-linejoin="round"></rect><path d="M11.3964 5.64652C11.4891 5.55383 11.6144 5.50129 11.7452 5.50002C11.8778 5.50384 12.004 5.55822 12.0979 5.65214C12.1918 5.74604 12.2462 5.87223 12.25 6.00483C12.2487 6.1357 12.1962 6.26098 12.1035 6.3536C12.0098 6.44733 11.8827 6.5 11.75 6.5C11.6173 6.5 11.4902 6.44732 11.3964 6.3536C11.3027 6.25986 11.25 6.13265 11.25 6C11.25 5.86741 11.3026 5.7403 11.3964 5.64652Z" fill="currentColor" stroke="currentColor"></path><path d="M7.39643 5.64652C7.48912 5.55383 7.61439 5.50129 7.74517 5.50002C7.87775 5.50384 8.00398 5.55822 8.09789 5.65214C8.19179 5.74604 8.24616 5.87223 8.24998 6.00483C8.24871 6.1357 8.19616 6.26098 8.10354 6.3536C8.00981 6.44733 7.88266 6.5 7.75 6.5C7.61732 6.5 7.49015 6.44732 7.39643 6.3536C7.30269 6.25986 7.25 6.13265 7.25 6C7.25 5.86741 7.30265 5.7403 7.39643 5.64652Z" fill="currentColor" stroke="currentColor"></path><path d="M15.3964 5.64652C15.4891 5.55383 15.6144 5.50129 15.7452 5.50002C15.8778 5.50384 16.004 5.55822 16.0979 5.65214C16.1918 5.74604 16.2462 5.87223 16.25 6.00483C16.2487 6.1357 16.1962 6.26098 16.1035 6.3536C16.0098 6.44733 15.8827 6.5 15.75 6.5C15.6173 6.5 15.4902 6.44732 15.3964 6.3536C15.3027 6.25986 15.25 6.13265 15.25 6C15.25 5.86741 15.3026 5.7403 15.3964 5.64652Z" fill="currentColor" stroke="currentColor"></path><circle cx="11.75" cy="14" r="4" stroke="currentColor" stroke-width="1.5" stroke-linecap="round" stroke-linejoin="round"></circle></svg>